<svg xmlns="http://www.w3.org/2000/svg" xmlns:xlink="http://www.w3.org/1999/xlink" version="1.1" x="0px" y="0px" viewBox="0 0 50 62.5" enable-background="new 0 0 50 50" xml:space="preserve"><g><path fill="#000000" d="M30.938,6.254v-5.23H19.313v5.672C13.877,8.74,9.719,13.25,8.125,18.831H2.88v11.622H8.54   c2.005,5.312,6.394,9.435,11.812,11.111v5.324h11.625v-5.536c5.354-1.887,9.57-6.188,11.357-11.587h5.418V18.141h-5.423   C41.431,12.405,36.74,7.904,30.938,6.254z M22.053,3.763h6.146v6.143h-6.146V3.763z M5.62,21.571h6.146v6.143H5.62V21.571z    M29.239,44.151h-6.143v-6.144h6.143V44.151z M31.979,38.447v-3.179H20.356v3.431c-3.93-1.453-7.148-4.438-8.881-8.246h3.03V18.831   h-3.535c1.392-4.083,4.415-7.422,8.342-9.204v3.018h11.625V9.101c4.31,1.466,7.82,4.802,9.5,9.045h-3.312v11.623h3.322   C38.897,33.669,35.834,36.812,31.979,38.447z M46.012,27.029h-6.146v-6.143h6.146V27.029z"/></g><text x="0" y="65" fill="#000000" font-size="5px" font-weight="bold" font-family="'Helvetica Neue', Helvetica, Arial-Unicode, Arial, Sans-serif">Created by Luboš Volkov</text><text x="0" y="70" fill="#000000" font-size="5px" font-weight="bold" font-family="'Helvetica Neue', Helvetica, Arial-Unicode, Arial, Sans-serif">from the Noun Project</text></svg>