<svg xmlns:dc="http://purl.org/dc/elements/1.1/" xmlns:cc="http://creativecommons.org/ns#" xmlns:rdf="http://www.w3.org/1999/02/22-rdf-syntax-ns#" xmlns:svg="http://www.w3.org/2000/svg" xmlns="http://www.w3.org/2000/svg" xmlns:sodipodi="http://sodipodi.sourceforge.net/DTD/sodipodi-0.dtd" xmlns:inkscape="http://www.inkscape.org/namespaces/inkscape" version="1.1" x="0px" y="0px" viewBox="0 0 100 125"><g transform="translate(0,-952.36218)"><path style="font-size:medium;font-style:normal;font-variant:normal;font-weight:normal;font-stretch:normal;text-indent:0;text-align:start;text-decoration:none;line-height:normal;letter-spacing:normal;word-spacing:normal;text-transform:none;direction:ltr;block-progression:tb;writing-mode:lr-tb;text-anchor:start;baseline-shift:baseline;opacity:1;color:#000000;fill:#000000;fill-opacity:1;fill-rule:nonzero;stroke:none;stroke-width:3.99999951999999980;marker:none;visibility:visible;display:inline;overflow:visible;enable-background:accumulate;font-family:Sans;-inkscape-font-specification:Sans" d="M 12.8125,11 C 11.829332,11.092661 10.995742,12.012485 11,13 l 0,14 c 1.05e-4,1.047169 0.952831,1.999895 2,2 l 5,0 0,42 -5,0 c -1.047169,1.05e-4 -1.999895,0.952831 -2,2 l 0,14 c 1.05e-4,1.047169 0.952831,1.999895 2,2 l 14,0 c 1.047169,-1.05e-4 1.999895,-0.952831 2,-2 l 0,-5 36,0 c 1.056621,0.01494 2.02847,-0.943274 2.02847,-2 0,-1.056726 -0.971849,-2.014936 -2.02847,-2 l -36,0 0,-5 c -1.05e-4,-1.047169 -0.952831,-1.999895 -2,-2 l -5,0 0,-42 5,0 c 1.047169,-1.05e-4 1.999895,-0.952831 2,-2 l 0,-5 42,0 0,5 c 1.05e-4,1.047169 0.952831,1.999895 2,2 l 5,0 0,42 -5,0 c -1.047169,1.05e-4 -1.999895,0.952831 -2,2 l 0,14 c 1.05e-4,1.047169 0.952831,1.999895 2,2 l 14,0 c 1.047169,-1.05e-4 1.999895,-0.952831 2,-2 l 0,-14 c -1.05e-4,-1.047169 -0.952831,-1.999895 -2,-2 l -5,0 0,-42 5,0 c 1.047169,-1.05e-4 1.999895,-0.952831 2,-2 l 0,-14 c 0.0043,-0.987515 -0.829332,-1.907339 -1.8125,-2 -0.06245,-0.0029 -0.125046,-0.0029 -0.1875,0 l -14,0 c -1.047169,1.05e-4 -1.999895,0.952831 -2,2 l 0,5 -42,0 0,-5 c -1.05e-4,-1.047169 -0.952831,-1.999895 -2,-2 l -14,0 c -0.06245,-0.0029 -0.125046,-0.0029 -0.1875,0 z M 15,15 l 10,0 0,10 -10,0 z m 60,0 10,0 0,10 -10,0 z m -60,60 10,0 0,10 -10,0 z m 60,0 10,0 0,10 -10,0 z" transform="translate(0,952.36218)"/></g><text x="0" y="115" fill="#000000" font-size="5px" font-weight="bold" font-family="'Helvetica Neue', Helvetica, Arial-Unicode, Arial, Sans-serif">Created by pictohaven</text><text x="0" y="120" fill="#000000" font-size="5px" font-weight="bold" font-family="'Helvetica Neue', Helvetica, Arial-Unicode, Arial, Sans-serif">from the Noun Project</text></svg>